# xmcd
#
# Track frame offsets:
# 150
# 17749
# 32860
# 49159
# 66896
# 82000
# 98469
# 116023
# 132217
# 147806
# 161682
# 175109
# 191078
# 208475
# 226082
# 242717
# 263797
# 279875
# 297213
# 313055
# 332622
# 345475
#
# Disc length: 4790 seconds
#
#
# Revision: 0
# Processed by: cddbd v1.5.1PL0 Copyright (c) Steve Scherf et al.
# Submitted via: FreeRIP 2.91 
#
DISCID=3f12b416
DTITLE=Bruno e Marrone - MEU PRESENTE É VOCÊ
DYEAR=2005
DGENRE=Country
TTITLE0=Choram as rosas
TTITLE1=Cuida do nosso amor
TTITLE2=Quer casar comigo?
TTITLE3=Por um gole a mais
TTITLE4=Faz mais, faz
TTITLE5=Por que choras
TTITLE6=Por te amar demais
TTITLE7=Vai sofrer pra lá
TTITLE8=Que pescar que nada
TTITLE9=Não tem outro jeito
TTITLE10=A culpa é sua (conselho)
TTITLE11=Raridade
TTITLE12=Meu presente é você
TTITLE13=Uma grande mentira
TTITLE14=Se não for por amor
TTITLE15=Será
TTITLE16=Doce desejo
TTITLE17=Apaziguar - Credo em cruz, Ave Maria - É prá lá que eu vou
TTITLE18=Ligação urbana 1
TTITLE19=Ligagação urbana 2
TTITLE20=Vai dar namoro
TTITLE21=Dormi na praça
EXTD=
EXTT0=
EXTT1=
EXTT2=
EXTT3=
EXTT4=
EXTT5=
EXTT6=
EXTT7=
EXTT8=
EXTT9=
EXTT10=
EXTT11=
EXTT12=
EXTT13=
EXTT14=
EXTT15=
EXTT16=
EXTT17=
EXTT18=
EXTT19=
EXTT20=
EXTT21=
PLAYORDER=
